<svg width="120" height="32" viewBox="0 0 120 32" fill="none" xmlns="http://www.w3.org/2000/svg">
<path d="M0.519531 16.7581V31.4692H5.0627V16.7581H0.519531ZM113.809 22.072C112.404 21.8293 110.999 21.5099 110.999 20.9479C110.999 20.6243 110.999 19.9814 112.898 19.9814C114.797 19.9814 114.963 20.7861 115.027 21.5099L115.112 21.8293H119.57L119.485 21.4035C119.242 18.1079 117.011 16.4218 112.719 16.4218C108.176 16.4218 106.524 18.9765 106.524 21.4844C106.524 24.8609 109.994 25.5848 112.553 26.0659C114.039 26.3086 115.444 26.6322 115.444 27.2751C115.444 27.7563 114.865 28.3183 113.375 28.3183C110.982 28.3183 110.654 27.3518 110.654 26.6152V26.2149H106.047V26.6152C106.128 29.9108 108.768 31.8439 113.311 31.8439C116.53 31.8439 120 30.4771 120 26.6194C120 23.2387 116.368 22.5191 113.809 22.0337V22.072ZM95.726 20.2666C97.2929 20.1857 97.7059 21.3907 97.855 22.1955L97.9359 22.5191H102.479L102.394 22.0933C102.066 17.8354 98.7619 16.3834 95.709 16.3834C91.0849 16.3834 88.4408 19.2788 88.4408 24.5032C88.4408 26.2064 88.9347 31.8183 95.462 31.8183C100.495 31.8183 102.232 28.1225 102.394 26.0318V25.6316H97.7868V25.9509C97.7868 26.2745 97.459 28.0416 95.6579 28.0416C93.431 28.0416 93.1841 25.9509 93.1841 23.8603C93.1841 23.0598 93.3459 20.2454 95.7388 20.2454L95.726 20.2666ZM77.7364 20.1645C76.4165 20.1645 75.6075 20.884 75.2583 22.3317H80.1336C79.8015 20.4029 78.3964 20.1645 77.7364 20.1645ZM77.8216 16.3834C79.9505 16.3834 84.9195 17.1882 84.9195 24.4223V25.4698H75.0795C75.2455 26.513 75.6628 28.1182 78.06 28.1182C78.886 28.1182 79.8781 27.718 80.1251 26.8408L80.206 26.6024H84.8301L84.7449 27.0835C83.838 30.0641 81.3386 31.8268 78.06 31.8268C73.1038 31.8268 70.5448 29.0124 70.5448 23.7879C70.5448 22.5829 70.8769 16.392 77.8131 16.392L77.8216 16.3834ZM50.8052 24.1584C50.8052 22.3913 50.3113 20.3007 47.7523 20.3007C45.1933 20.3007 44.7079 22.3913 44.7079 24.1584C44.7079 25.9254 45.2061 28.016 47.7651 28.016C50.3241 28.016 50.818 25.9296 50.818 24.1584H50.8052ZM47.7523 16.4431C51.3034 16.4431 55.4165 18.4528 55.4165 24.1584C55.4165 29.8639 51.2864 31.8737 47.7523 31.8737C44.2183 31.8737 40.0881 29.8639 40.0881 24.1584C40.0881 18.4528 44.2183 16.4431 47.7523 16.4431ZM18.9349 16.4431C16.8698 16.4431 15.6308 17.3287 14.9708 18.1462V16.7837H10.5937V31.4734H15.1369V23.1109C15.1369 21.3439 16.129 20.2965 17.6916 20.2965C19.5906 20.2965 19.7567 21.4248 19.7567 22.6298V31.4734H24.2999V21.5057C24.2999 18.3676 22.239 16.4388 18.9349 16.4388V16.4431ZM65.0096 13.0665H60.4621V16.7837H58.5631V20.1602H60.4621V28.28C60.4621 30.047 60.9561 31.6565 64.6732 31.6565H66.8021L67.3003 31.5756V28.0416L66.1422 28.1182C64.9883 28.1182 64.9883 28.1182 64.9883 27.3944V20.1559H67.3003V16.7837H64.9883L65.0096 13.0665ZM34.8722 16.6006V16.7837H37.346V20.1602H34.8722V31.4734H30.329V20.1389H28.264V16.7837H30.329V16.0598C30.329 13.1645 31.9002 11.7168 34.9531 11.7168L37.2651 11.802V15.4978H35.7664C34.8594 15.4978 34.8594 15.4978 34.8594 16.6219" fill="#236192"/>
<path d="M11.9484 8.52796C11.5526 8.57853 11.1507 8.55251 10.7647 8.45132C10.3842 8.38262 10.0314 8.20604 9.74835 7.9426C9.46528 7.67916 9.26385 7.33995 9.16803 6.96532C9.06232 6.56197 9.06956 6.13732 9.18897 5.73781C9.30837 5.3383 9.53533 4.97931 9.84503 4.70012C10.1579 4.47996 10.4987 4.30241 10.8584 4.17214C14.0263 3.1247 20.345 1.40025 31.3389 0.765826C42.33 0.0967068 53.3552 1.28718 63.9501 4.2871C67.3564 5.27068 68.6082 5.96897 68.4294 6.59062C68.2506 7.21228 66.5474 7.01641 64.0352 6.56933C62.0979 6.23722 57.2226 5.59428 52.4197 5.11739C45.5391 4.43438 38.6098 4.39589 31.7221 5.00243C25.0557 5.70351 18.4477 6.87883 11.9484 8.51945" fill="#C04C36"/>
<path d="M0.000119849 9.88717C0.0168803 10.6231 0.324824 11.3224 0.85642 11.8317C1.38802 12.3409 2.09987 12.6185 2.83588 12.6037C3.19933 12.6037 3.55922 12.5321 3.895 12.393C4.23079 12.2539 4.53589 12.0501 4.79289 11.7931C5.04989 11.5361 5.25375 11.231 5.39283 10.8952C5.53192 10.5594 5.60351 10.1995 5.60351 9.83607C5.60351 9.47262 5.53192 9.11273 5.39283 8.77695C5.25375 8.44116 5.04989 8.13606 4.79289 7.87906C4.53589 7.62206 4.23079 7.4182 3.895 7.27911C3.55922 7.14003 3.19933 7.06844 2.83588 7.06844C2.46334 7.06275 2.09344 7.13164 1.74793 7.27106C1.40243 7.41048 1.0883 7.61762 0.824061 7.88028C0.559817 8.14293 0.350792 8.4558 0.20929 8.80046C0.0677875 9.14512 -0.0033314 9.51461 0.000119849 9.88717" fill="#C04C36"/>
</svg>
